<svg xmlns="http://www.w3.org/2000/svg" viewBox="0 0 512 512" width="512" height="512" role="img" aria-label="Biosensors make contact">
  <title>Biosensors make contact</title>
  <defs>
    <filter id="softGlow" x="-50%" y="-50%" width="200%" height="200%">
      <feGaussianBlur stdDeviation="16" result="glow"/>
      <feMerge>
        <feMergeNode in="glow"/>
        <feMergeNode in="SourceGraphic"/>
      </feMerge>
    </filter>
  </defs>
  
<rect x="48" y="360" width="416" height="110" rx="22" fill="#ffd7c2" stroke="#f59e7d" stroke-width="2"/>
<rect x="48" y="409.5" width="416" height="60.50000000000001" rx="22" fill="#ffc4ad" opacity="0.9"/>
<path d="M 68 437.0 C 152.0 420.5, 297.6 453.5, 440 442.5" fill="none" stroke="#e11d48" stroke-width="10" stroke-linecap="round"/>

    <rect x="106.0" y="217.0" width="300" height="86" rx="43.0" fill="#111827"/>
    <rect x="126.0" y="229.0" width="260" height="62" rx="31.0" fill="#1f2937"/>
    <rect x="216.0" y="194.0" width="80" height="120" rx="20" fill="#111827" stroke="#1f2937" stroke-width="6"/>
    <rect x="226.0" y="204.0" width="60" height="100" rx="14" fill="#0ea5e9" opacity="0.18"/>
    
<!-- Contact waves downwards -->
<path d="M 156.00 310.00 L 157.67 310.52 L 159.33 311.05 L 161.00 311.56 L 162.67 312.08 L 164.33 312.59 L 166.00 313.09 L 167.67 313.58 L 169.33 314.07 L 171.00 314.54 L 172.67 315.00 L 174.33 315.45 L 176.00 315.88 L 177.67 316.29 L 179.33 316.69 L 181.00 317.07 L 182.67 317.43 L 184.33 317.77 L 186.00 318.09 L 187.67 318.39 L 189.33 318.66 L 191.00 318.91 L 192.67 319.14 L 194.33 319.34 L 196.00 319.51 L 197.67 319.66 L 199.33 319.78 L 201.00 319.88 L 202.67 319.95 L 204.33 319.99 L 206.00 320.00 L 207.67 319.99 L 209.33 319.95 L 211.00 319.88 L 212.67 319.78 L 214.33 319.66 L 216.00 319.51 L 217.67 319.34 L 219.33 319.14 L 221.00 318.91 L 222.67 318.66 L 224.33 318.39 L 226.00 318.09 L 227.67 317.77 L 229.33 317.43 L 231.00 317.07 L 232.67 316.69 L 234.33 316.29 L 236.00 315.88 L 237.67 315.45 L 239.33 315.00 L 241.00 314.54 L 242.67 314.07 L 244.33 313.58 L 246.00 313.09 L 247.67 312.59 L 249.33 312.08 L 251.00 311.56 L 252.67 311.05 L 254.33 310.52 L 256.00 310.00 L 257.67 309.48 L 259.33 308.95 L 261.00 308.44 L 262.67 307.92 L 264.33 307.41 L 266.00 306.91 L 267.67 306.42 L 269.33 305.93 L 271.00 305.46 L 272.67 305.00 L 274.33 304.55 L 276.00 304.12 L 277.67 303.71 L 279.33 303.31 L 281.00 302.93 L 282.67 302.57 L 284.33 302.23 L 286.00 301.91 L 287.67 301.61 L 289.33 301.34 L 291.00 301.09 L 292.67 300.86 L 294.33 300.66 L 296.00 300.49 L 297.67 300.34 L 299.33 300.22 L 301.00 300.12 L 302.67 300.05 L 304.33 300.01 L 306.00 300.00 L 307.67 300.01 L 309.33 300.05 L 311.00 300.12 L 312.67 300.22 L 314.33 300.34 L 316.00 300.49 L 317.67 300.66 L 319.33 300.86 L 321.00 301.09 L 322.67 301.34 L 324.33 301.61 L 326.00 301.91 L 327.67 302.23 L 329.33 302.57 L 331.00 302.93 L 332.67 303.31 L 334.33 303.71 L 336.00 304.12 L 337.67 304.55 L 339.33 305.00 L 341.00 305.46 L 342.67 305.93 L 344.33 306.42 L 346.00 306.91 L 347.67 307.41 L 349.33 307.92 L 351.00 308.44 L 352.67 308.95 L 354.33 309.48 L 356.00 310.00" fill="none" stroke="#22d3ee" stroke-width="6"/>
<path d="M 176.00 330.00 L 177.33 330.42 L 178.67 330.84 L 180.00 331.25 L 181.33 331.66 L 182.67 332.07 L 184.00 332.47 L 185.33 332.87 L 186.67 333.25 L 188.00 333.63 L 189.33 334.00 L 190.67 334.36 L 192.00 334.70 L 193.33 335.03 L 194.67 335.35 L 196.00 335.66 L 197.33 335.95 L 198.67 336.22 L 200.00 336.47 L 201.33 336.71 L 202.67 336.93 L 204.00 337.13 L 205.33 337.31 L 206.67 337.47 L 208.00 337.61 L 209.33 337.73 L 210.67 337.83 L 212.00 337.90 L 213.33 337.96 L 214.67 337.99 L 216.00 338.00 L 217.33 337.99 L 218.67 337.96 L 220.00 337.90 L 221.33 337.83 L 222.67 337.73 L 224.00 337.61 L 225.33 337.47 L 226.67 337.31 L 228.00 337.13 L 229.33 336.93 L 230.67 336.71 L 232.00 336.47 L 233.33 336.22 L 234.67 335.95 L 236.00 335.66 L 237.33 335.35 L 238.67 335.03 L 240.00 334.70 L 241.33 334.36 L 242.67 334.00 L 244.00 333.63 L 245.33 333.25 L 246.67 332.87 L 248.00 332.47 L 249.33 332.07 L 250.67 331.66 L 252.00 331.25 L 253.33 330.84 L 254.67 330.42 L 256.00 330.00 L 257.33 329.58 L 258.67 329.16 L 260.00 328.75 L 261.33 328.34 L 262.67 327.93 L 264.00 327.53 L 265.33 327.13 L 266.67 326.75 L 268.00 326.37 L 269.33 326.00 L 270.67 325.64 L 272.00 325.30 L 273.33 324.97 L 274.67 324.65 L 276.00 324.34 L 277.33 324.05 L 278.67 323.78 L 280.00 323.53 L 281.33 323.29 L 282.67 323.07 L 284.00 322.87 L 285.33 322.69 L 286.67 322.53 L 288.00 322.39 L 289.33 322.27 L 290.67 322.17 L 292.00 322.10 L 293.33 322.04 L 294.67 322.01 L 296.00 322.00 L 297.33 322.01 L 298.67 322.04 L 300.00 322.10 L 301.33 322.17 L 302.67 322.27 L 304.00 322.39 L 305.33 322.53 L 306.67 322.69 L 308.00 322.87 L 309.33 323.07 L 310.67 323.29 L 312.00 323.53 L 313.33 323.78 L 314.67 324.05 L 316.00 324.34 L 317.33 324.65 L 318.67 324.97 L 320.00 325.30 L 321.33 325.64 L 322.67 326.00 L 324.00 326.37 L 325.33 326.75 L 326.67 327.13 L 328.00 327.53 L 329.33 327.93 L 330.67 328.34 L 332.00 328.75 L 333.33 329.16 L 334.67 329.58 L 336.00 330.00" fill="none" stroke="#06b6d4" stroke-width="4" opacity="0.9"/>
<!-- Soft glow under band -->
<circle cx="256" cy="320" r="36" fill="#22d3ee" opacity="0.25" filter="url(#softGlow)"/>

</svg>