<svg xmlns="http://www.w3.org/2000/svg" viewBox="0 0 512 512" width="512" height="512" role="img" aria-label="Therapeutic frequencies are delivered">
  <title>Therapeutic frequencies are delivered</title>
  <defs>
    <filter id="softGlow" x="-50%" y="-50%" width="200%" height="200%">
      <feGaussianBlur stdDeviation="16" result="glow"/>
      <feMerge>
        <feMergeNode in="glow"/>
        <feMergeNode in="SourceGraphic"/>
      </feMerge>
    </filter>
  </defs>
  
<rect x="48" y="344" width="416" height="128" rx="22" fill="#ffd7c2" stroke="#f59e7d" stroke-width="2"/>
<rect x="48" y="401.6" width="416" height="70.4" rx="22" fill="#ffc4ad" opacity="0.9"/>
<path d="M 68 433.6 C 152.0 414.4, 297.6 452.8, 440 440.0" fill="none" stroke="#e11d48" stroke-width="10" stroke-linecap="round"/>
<!-- Biosensor nodes -->
<circle cx="128" cy="220" r="16" fill="#1f2937" stroke="#0ea5e9" stroke-width="6"/>
<circle cx="384" cy="220" r="16" fill="#1f2937" stroke="#0ea5e9" stroke-width="6"/>
<!-- Frequency wave between sensors -->
<path d="M 128.00 220.00 L 130.13 224.39 L 132.27 228.73 L 134.40 232.98 L 136.53 237.08 L 138.67 241.00 L 140.80 244.69 L 142.93 248.10 L 145.07 251.21 L 147.20 253.98 L 149.33 256.37 L 151.47 258.37 L 153.60 259.94 L 155.73 261.08 L 157.87 261.77 L 160.00 262.00 L 162.13 261.77 L 164.27 261.08 L 166.40 259.94 L 168.53 258.37 L 170.67 256.37 L 172.80 253.98 L 174.93 251.21 L 177.07 248.10 L 179.20 244.69 L 181.33 241.00 L 183.47 237.08 L 185.60 232.98 L 187.73 228.73 L 189.87 224.39 L 192.00 220.00 L 194.13 215.61 L 196.27 211.27 L 198.40 207.02 L 200.53 202.92 L 202.67 199.00 L 204.80 195.31 L 206.93 191.90 L 209.07 188.79 L 211.20 186.02 L 213.33 183.63 L 215.47 181.63 L 217.60 180.06 L 219.73 178.92 L 221.87 178.23 L 224.00 178.00 L 226.13 178.23 L 228.27 178.92 L 230.40 180.06 L 232.53 181.63 L 234.67 183.63 L 236.80 186.02 L 238.93 188.79 L 241.07 191.90 L 243.20 195.31 L 245.33 199.00 L 247.47 202.92 L 249.60 207.02 L 251.73 211.27 L 253.87 215.61 L 256.00 220.00 L 258.13 224.39 L 260.27 228.73 L 262.40 232.98 L 264.53 237.08 L 266.67 241.00 L 268.80 244.69 L 270.93 248.10 L 273.07 251.21 L 275.20 253.98 L 277.33 256.37 L 279.47 258.37 L 281.60 259.94 L 283.73 261.08 L 285.87 261.77 L 288.00 262.00 L 290.13 261.77 L 292.27 261.08 L 294.40 259.94 L 296.53 258.37 L 298.67 256.37 L 300.80 253.98 L 302.93 251.21 L 305.07 248.10 L 307.20 244.69 L 309.33 241.00 L 311.47 237.08 L 313.60 232.98 L 315.73 228.73 L 317.87 224.39 L 320.00 220.00 L 322.13 215.61 L 324.27 211.27 L 326.40 207.02 L 328.53 202.92 L 330.67 199.00 L 332.80 195.31 L 334.93 191.90 L 337.07 188.79 L 339.20 186.02 L 341.33 183.63 L 343.47 181.63 L 345.60 180.06 L 347.73 178.92 L 349.87 178.23 L 352.00 178.00 L 354.13 178.23 L 356.27 178.92 L 358.40 180.06 L 360.53 181.63 L 362.67 183.63 L 364.80 186.02 L 366.93 188.79 L 369.07 191.90 L 371.20 195.31 L 373.33 199.00 L 375.47 202.92 L 377.60 207.02 L 379.73 211.27 L 381.87 215.61 L 384.00 220.00" fill="none" stroke="#22d3ee" stroke-width="6"/>
<!-- Downward penetration arrows -->
<path d="M256 260 v60" stroke="#06b6d4" stroke-width="8" stroke-linecap="round"/>
<path d="M246 310 L256 324 L266 310" fill="none" stroke="#06b6d4" stroke-width="8" stroke-linecap="round"/>
<!-- Wave through tissue -->
<path d="M 80.00 388.00 L 82.93 389.67 L 85.87 391.33 L 88.80 392.94 L 91.73 394.51 L 94.67 396.00 L 97.60 397.40 L 100.53 398.71 L 103.47 399.89 L 106.40 400.94 L 109.33 401.86 L 112.27 402.62 L 115.20 403.22 L 118.13 403.65 L 121.07 403.91 L 124.00 404.00 L 126.93 403.91 L 129.87 403.65 L 132.80 403.22 L 135.73 402.62 L 138.67 401.86 L 141.60 400.94 L 144.53 399.89 L 147.47 398.71 L 150.40 397.40 L 153.33 396.00 L 156.27 394.51 L 159.20 392.94 L 162.13 391.33 L 165.07 389.67 L 168.00 388.00 L 170.93 386.33 L 173.87 384.67 L 176.80 383.06 L 179.73 381.49 L 182.67 380.00 L 185.60 378.60 L 188.53 377.29 L 191.47 376.11 L 194.40 375.06 L 197.33 374.14 L 200.27 373.38 L 203.20 372.78 L 206.13 372.35 L 209.07 372.09 L 212.00 372.00 L 214.93 372.09 L 217.87 372.35 L 220.80 372.78 L 223.73 373.38 L 226.67 374.14 L 229.60 375.06 L 232.53 376.11 L 235.47 377.29 L 238.40 378.60 L 241.33 380.00 L 244.27 381.49 L 247.20 383.06 L 250.13 384.67 L 253.07 386.33 L 256.00 388.00 L 258.93 389.67 L 261.87 391.33 L 264.80 392.94 L 267.73 394.51 L 270.67 396.00 L 273.60 397.40 L 276.53 398.71 L 279.47 399.89 L 282.40 400.94 L 285.33 401.86 L 288.27 402.62 L 291.20 403.22 L 294.13 403.65 L 297.07 403.91 L 300.00 404.00 L 302.93 403.91 L 305.87 403.65 L 308.80 403.22 L 311.73 402.62 L 314.67 401.86 L 317.60 400.94 L 320.53 399.89 L 323.47 398.71 L 326.40 397.40 L 329.33 396.00 L 332.27 394.51 L 335.20 392.94 L 338.13 391.33 L 341.07 389.67 L 344.00 388.00 L 346.93 386.33 L 349.87 384.67 L 352.80 383.06 L 355.73 381.49 L 358.67 380.00 L 361.60 378.60 L 364.53 377.29 L 367.47 376.11 L 370.40 375.06 L 373.33 374.14 L 376.27 373.38 L 379.20 372.78 L 382.13 372.35 L 385.07 372.09 L 388.00 372.00 L 390.93 372.09 L 393.87 372.35 L 396.80 372.78 L 399.73 373.38 L 402.67 374.14 L 405.60 375.06 L 408.53 376.11 L 411.47 377.29 L 414.40 378.60 L 417.33 380.00 L 420.27 381.49 L 423.20 383.06 L 426.13 384.67 L 429.07 386.33 L 432.00 388.00" fill="none" stroke="#e11d48" stroke-width="6" opacity="0.7"/>

</svg>